<?xml version="1.0" standalone="no"?>
<!DOCTYPE svg PUBLIC "-//W3C//DTD SVG 20010904//EN"
 "http://www.w3.org/TR/2001/REC-SVG-20010904/DTD/svg10.dtd">
<svg width="42" height="42" viewBox="0 0 42 42" fill="none" xmlns="http://www.w3.org/2000/svg">
  <circle cx="21" cy="19" r="12" fill="#fff" />
  <circle cx="21" cy="29" r="6" fill="#fff" />
  <path d="M21 37.1875C20.7427 37.19 20.4913 37.1103 20.2825 36.96C19.7575 36.6275 7.4375 28.35 7.4375 18.2875C7.4375 14.6905 8.8664 11.2408 11.4099 8.69736C13.9533 6.1539 17.403 4.725 21 4.725C24.597 4.725 28.0467 6.1539 30.5901 8.69736C33.1336 11.2408 34.5625 14.6905 34.5625 18.2875C34.5625 28.35 22.3125 36.6275 21.7175 36.96C21.5087 37.1103 21.2573 37.19 21 37.1875ZM21 7.4375C18.1115 7.42819 15.3373 8.56554 13.2867 10.5998C11.236 12.6341 10.0764 15.399 10.0625 18.2875C10.0625 25.655 18.445 32.3925 21 34.265C23.555 32.3925 31.9375 25.655 31.9375 18.2875C31.9236 15.399 30.764 12.6341 28.7133 10.5998C26.6627 8.56554 23.8885 7.42819 21 7.4375Z" fill="#529075" />
  <path d="M21 22.3125C20.0482 22.3125 19.1177 22.0303 18.3263 21.5014C17.5349 20.9726 16.9181 20.221 16.5538 19.3417C16.1896 18.4623 16.0943 17.4947 16.28 16.5611C16.4657 15.6276 16.924 14.7701 17.5971 14.097C18.2701 13.424 19.1276 12.9657 20.0611 12.78C20.9947 12.5943 21.9623 12.6896 22.8417 13.0538C23.721 13.4181 24.4726 14.0349 25.0014 14.8263C25.5303 15.6177 25.8125 16.5482 25.8125 17.5C25.8125 18.7764 25.3055 20.0004 24.403 20.903C23.5004 21.8055 22.2764 22.3125 21 22.3125ZM21 15.3125C20.5674 15.3125 20.1444 15.4408 19.7847 15.6812C19.425 15.9215 19.1446 16.2632 18.979 16.6629C18.8134 17.0626 18.7701 17.5024 18.8545 17.9268C18.9389 18.3511 19.1473 18.7409 19.4532 19.0468C19.7591 19.3527 20.1489 19.5611 20.5732 19.6455C20.9976 19.7299 21.4374 19.6866 21.8371 19.521C22.2368 19.3554 22.5785 19.075 22.8188 18.7153C23.0592 18.3556 23.1875 17.9326 23.1875 17.5C23.1875 16.9198 22.957 16.3634 22.5468 15.9532C22.1366 15.543 21.5802 15.3125 21 15.3125Z" fill="#529075" />
</svg>
